<?xml version="1.0" encoding="UTF-8" standalone="no"?>
<svg
   width="35"
   height="35"
   viewBox="0 0 35 35"
   version="1.1"
   id="svg4"
   sodipodi:docname="iconmonstr-github-1.svg"
   inkscape:version="1.1 (c68e22c387, 2021-05-23)"
   xmlns:inkscape="http://www.inkscape.org/namespaces/inkscape"
   xmlns:sodipodi="http://sodipodi.sourceforge.net/DTD/sodipodi-0.dtd"
   xmlns="http://www.w3.org/2000/svg"
   xmlns:svg="http://www.w3.org/2000/svg">
  <defs
     id="defs8" />
  <sodipodi:namedview
     id="namedview6"
     pagecolor="#ffffff"
     bordercolor="#666666"
     borderopacity="1.0"
     inkscape:pageshadow="2"
     inkscape:pageopacity="0.0"
     inkscape:pagecheckerboard="0"
     showgrid="false"
     inkscape:zoom="4.46875"
     inkscape:cx="6.8251748"
     inkscape:cy="7.2727273"
     inkscape:window-width="1920"
     inkscape:window-height="1017"
     inkscape:window-x="1432"
     inkscape:window-y="-8"
     inkscape:window-maximized="1"
     inkscape:current-layer="svg4" />
  <path
     d="M 17.594405,0 C 7.8793613,0 0,7.9412197 0,17.735834 c 0,7.836283 5.0407972,14.484264 12.033107,16.829828 0.878254,0.164057 1.162698,-0.385754 1.162698,-0.852797 V 30.411043 C 8.3016271,31.484061 7.2826177,28.318215 7.2826177,28.318215 6.4820723,26.268248 5.3281724,25.722871 5.3281724,25.722871 3.7314802,24.621772 5.4498671,24.64542 5.4498671,24.64542 c 1.7667716,0.12415 2.6963427,1.828268 2.6963427,1.828268 1.5688345,2.710627 4.1156242,1.927294 5.1199722,1.473552 0.156883,-1.14544 0.612871,-1.928772 1.117244,-2.37069 -3.907424,-0.450785 -8.0157174,-1.971633 -8.0157174,-8.765935 0,-1.93764 0.687648,-3.519085 1.8122238,-4.760594 -0.1818089,-0.44783 -0.7844172,-2.2524508 0.1715455,-4.694084 0,0 1.47793,-0.4759115 4.8399271,1.817923 1.403155,-0.3931443 2.907476,-0.5897165 4.403,-0.5971063 1.495525,0.00739 3.001313,0.203962 4.4074,0.5971063 3.359064,-2.2938345 4.834063,-1.817923 4.834063,-1.817923 0.957429,2.4431112 0.354819,4.247732 0.173011,4.694084 1.128974,1.241509 1.810758,2.824432 1.810758,4.760594 0,6.812038 -4.115626,8.312194 -8.033313,8.751155 0.630466,0.549812 1.206683,1.628742 1.206683,3.284085 v 4.86701 c 0,0.471477 0.281511,1.025722 1.174427,0.85132 C 30.153879,32.215665 35.188811,25.56916 35.188811,17.735834 35.188811,7.9412197 27.310916,0 17.594405,0 Z"
     id="path2"
     style="stroke-width:1.47208" />
</svg>
